<?xml version="1.0" encoding="UTF-8"?>
<!DOCTYPE svg PUBLIC "-//W3C//DTD SVG 1.1//EN" "http://www.w3.org/Graphics/SVG/1.1/DTD/svg11.dtd">
<!-- Creator: CorelDRAW 2017 -->
<svg xmlns="http://www.w3.org/2000/svg" xml:space="preserve" width="19.9061mm" height="19.9061mm" version="1.1" style="shape-rendering:geometricPrecision; text-rendering:geometricPrecision; image-rendering:optimizeQuality; fill-rule:evenodd; clip-rule:evenodd"
viewBox="0 0 141 141"
 xmlns:xlink="http://www.w3.org/1999/xlink">
 <defs>
  <style type="text/css">
   <![CDATA[
    .fil0 {fill:black}
   ]]>
  </style>
 </defs>
 <g id="Camada_x0020_1">
  <metadata id="CorelCorpID_0Corel-Layer"/>
  <path class="fil0" d="M0 123c0,10 8,18 18,18l104 0c10,0 18,-8 18,-18l0 -104c0,-10 -8,-18 -18,-18l-104 0c-10,0 -18,8 -18,18l0 104 0 0zm58 -60l0 -20 18 0c2,0 3,0 5,0 2,0 3,1 4,1 1,1 2,2 3,3 1,1 1,3 1,5 0,4 -1,6 -3,8 -2,2 -5,2 -8,2l-19 0zm-19 -34l0 85 41 0c4,0 8,0 11,-1 4,-1 7,-2 10,-4 3,-2 5,-5 7,-8 2,-3 3,-7 3,-11 0,-5 -1,-10 -4,-14 -3,-4 -7,-6 -12,-8 4,-2 7,-4 9,-7 2,-3 3,-6 3,-11 0,-4 -1,-7 -2,-10 -1,-3 -3,-5 -6,-6 -2,-2 -5,-3 -9,-4 -3,-1 -7,-1 -11,-1l-40 0zm19 71l0 -23 20 0c4,0 7,1 10,3 2,2 4,5 4,9 0,2 0,4 -1,5 -1,1 -2,3 -3,3 -1,1 -3,1 -4,2 -2,0 -3,1 -5,1l-20 0z"/>
 </g>
</svg>
