<?xml version="1.0" encoding="UTF-8"?>
<!DOCTYPE svg PUBLIC "-//W3C//DTD SVG 1.1//EN" "http://www.w3.org/Graphics/SVG/1.1/DTD/svg11.dtd">
<!-- Creator: CorelDRAW 2017 -->
<svg xmlns="http://www.w3.org/2000/svg" xml:space="preserve" width="38.4949mm" height="20.7868mm" version="1.1" style="shape-rendering:geometricPrecision; text-rendering:geometricPrecision; image-rendering:optimizeQuality; fill-rule:evenodd; clip-rule:evenodd"
viewBox="0 0 730 394"
 xmlns:xlink="http://www.w3.org/1999/xlink">
 <defs>
  <style type="text/css">
   <![CDATA[
    .fil0 {fill:black}
   ]]>
  </style>
 </defs>
 <g id="Camada_x0020_1">
  <metadata id="CorelCorpID_0Corel-Layer"/>
  <path class="fil0" d="M485 298c4,-15 3,-29 -4,-38 -7,-9 -18,-15 -31,-16l-254 -3c-1,0 -3,-1 -4,-1 -1,-1 -1,-3 0,-4 1,-3 3,-4 6,-4l256 -3c31,-1 63,-26 74,-55l15 -38c0,-1 1,-3 0,-4 -16,-74 -83,-130 -162,-130 -73,0 -136,47 -158,112 -15,-10 -32,-16 -53,-15 -35,3 -63,32 -67,67 -1,9 0,18 1,26 -57,1 -104,48 -104,107 0,6 0,10 1,16 0,3 3,4 4,4l469 0c3,0 6,-1 6,-4l4 -16 0 0z"/>
  <g>
   <path class="fil0" d="M565 134l-7 0c-1,0 -3,1 -4,3l-10 35c-4,15 -3,29 4,38 7,9 18,15 31,16l54 3c1,0 3,1 4,1 1,1 1,3 0,4 -1,3 -3,4 -6,4l-55 3c-31,1 -63,26 -74,55l-3 13c-1,1 0,4 3,4l193 0c3,0 4,-1 4,-4 3,-12 6,-25 6,-38 0,-76 -63,-139 -139,-139l0 0zm0 0l0 0 0 0z"/>
  </g>
  <g>
   <path class="fil0" d="M724 349c-4,0 -6,-3 -6,-6 0,-4 3,-6 6,-6 4,0 6,3 6,6 0,4 -3,6 -6,6l0 0zm0 -12c-3,0 -5,2 -5,5 0,3 2,5 5,5 3,0 5,-2 5,-5 0,-3 -2,-5 -5,-5l0 0zm3 9l-1 0 -1 -2 -1 0 0 2 -1 0 0 -6 4 0c1,0 2,1 2,2 0,1 -1,1 -1,2l1 2 0 0zm-2 -4c1,0 1,0 1,-1 0,-1 -1,-1 -1,-1l-2 0 0 2 2 0 0 -1zm-646 -6l16 0 0 43 27 0 0 14 -43 0 0 -57zm60 28c0,-17 13,-30 31,-30 18,0 30,13 30,30 0,17 -13,30 -31,30 -17,0 -30,-13 -30,-30l0 0zm45 0c0,-9 -6,-16 -14,-16 -9,0 -14,7 -14,15 0,8 6,15 14,15 9,1 14,-6 14,-14l0 0zm35 4l0 -32 16 0 0 32c0,8 4,12 11,12 6,0 11,-4 11,-12l0 -32 16 0 0 32c0,19 -11,27 -27,27 -17,-1 -27,-9 -27,-27l0 0zm77 -32l22 0c20,0 32,12 32,28 0,17 -12,29 -32,29l-22 0 0 -57 -1 0zm22 42c9,0 16,-5 16,-14 0,-9 -6,-14 -16,-14l-6 0 0 29 6 0zm55 -42l45 0 0 14 -30 0 0 9 27 0 0 13 -27 0 0 21 -16 0 0 -57zm68 0l16 0 0 43 27 0 0 14 -43 0 0 -57zm84 -1l16 0 24 58 -17 0 -4 -10 -22 0 -4 10 -17 0 24 -58 0 0zm14 35l-6 -16 -6 16 13 0zm46 -35l27 0c9,0 14,2 19,6 4,4 5,8 5,13 0,9 -4,14 -12,17l14 20 -18 0 -12 -17 -7 0 0 17 -16 0 0 -57zm26 27c5,0 9,-3 9,-6 0,-4 -4,-6 -9,-6l-10 0 0 14 10 0 0 -1zm47 -27l46 0 0 13 -30 0 0 9 27 0 0 13 -27 0 0 9 31 0 0 14 -47 0 0 -57zm-614 35c-2,5 -7,9 -13,9 -9,0 -14,-7 -14,-15 0,-8 6,-15 14,-15 6,0 12,4 14,9l17 0c-3,-14 -14,-24 -30,-24 -17,0 -31,13 -31,30 0,17 13,30 30,30 15,0 27,-10 30,-23l-17 0z"/>
  </g>
 </g>
</svg>
