<?xml version="1.0" encoding="UTF-8"?>
<!DOCTYPE svg PUBLIC "-//W3C//DTD SVG 1.1//EN" "http://www.w3.org/Graphics/SVG/1.1/DTD/svg11.dtd">
<!-- Creator: CorelDRAW 2017 -->
<svg xmlns="http://www.w3.org/2000/svg" xml:space="preserve" width="24.6599mm" height="24.6599mm" version="1.1" style="shape-rendering:geometricPrecision; text-rendering:geometricPrecision; image-rendering:optimizeQuality; fill-rule:evenodd; clip-rule:evenodd"
viewBox="0 0 402 402"
 xmlns:xlink="http://www.w3.org/1999/xlink">
 <defs>
  <style type="text/css">
   <![CDATA[
    .fil0 {fill:black}
   ]]>
  </style>
 </defs>
 <g id="Camada_x0020_1">
  <metadata id="CorelCorpID_0Corel-Layer"/>
  <path class="fil0" d="M0 402l402 0 0 -402 -402 0 0 402zm207 -240l-18 0 0 76 18 0c21,0 38,-17 38,-38 0,-21 -17,-38 -38,-38zm0 -110c-82,0 -149,67 -149,149 0,22 5,43 13,61l-25 60 65 -7c26,22 59,35 96,35 82,0 149,-67 149,-149 0,-82 -67,-149 -149,-149zm5 224l-65 0 0 -151 65 0c21,0 40,8 53,22 14,14 22,33 22,53 0,42 -34,76 -76,76z"/>
 </g>
</svg>
