<?xml version="1.0" encoding="UTF-8"?>
<!DOCTYPE svg PUBLIC "-//W3C//DTD SVG 1.1//EN" "http://www.w3.org/Graphics/SVG/1.1/DTD/svg11.dtd">
<!-- Creator: CorelDRAW 2017 -->
<svg xmlns="http://www.w3.org/2000/svg" xml:space="preserve" width="70.5526mm" height="70.3121mm" version="1.1" style="shape-rendering:geometricPrecision; text-rendering:geometricPrecision; image-rendering:optimizeQuality; fill-rule:evenodd; clip-rule:evenodd"
viewBox="0 0 791 788"
 xmlns:xlink="http://www.w3.org/1999/xlink">
 <defs>
  <style type="text/css">
   <![CDATA[
    .fil0 {fill:black}
   ]]>
  </style>
 </defs>
 <g id="Camada_x0020_1">
  <metadata id="CorelCorpID_0Corel-Layer"/>
  <path class="fil0" d="M791 405c0,-224 -181,-405 -405,-405 -216,0 -344,133 -385,291l1 -1 194 -147 0 193 0 21 0 76 0 109 0 21 0 106 379 0 -56 119 0 0c158,-55 272,-206 272,-383zm-561 -131l0 62 0 0 315 0 0 -62 -315 0zm315 -89l0 68 -315 0 0 -68 315 0zm0 172l0 185 -315 0 0 -109 0 -76 315 0zm-151 205l0 65 -162 0 0 -65 162 0z"/>
 </g>
</svg>
