<?xml version="1.0" encoding="UTF-8"?>
<!DOCTYPE svg PUBLIC "-//W3C//DTD SVG 1.1//EN" "http://www.w3.org/Graphics/SVG/1.1/DTD/svg11.dtd">
<!-- Creator: CorelDRAW 2017 -->
<svg xmlns="http://www.w3.org/2000/svg" xml:space="preserve" width="25.5079mm" height="16.7934mm" version="1.1" style="shape-rendering:geometricPrecision; text-rendering:geometricPrecision; image-rendering:optimizeQuality; fill-rule:evenodd; clip-rule:evenodd"
viewBox="0 0 2243 1477"
 xmlns:xlink="http://www.w3.org/1999/xlink">
 <defs>
  <style type="text/css">
   <![CDATA[
    .fil0 {fill:black}
   ]]>
  </style>
 </defs>
 <g id="Camada_x0020_1">
  <metadata id="CorelCorpID_0Corel-Layer"/>
  <path class="fil0" d="M2084 980c42,56 153,14 146,-63 -36,-107 -186,-4 -146,63zm-980 -618c14,-21 42,-14 63,-21 0,35 -7,83 -49,90 -35,-7 -28,-49 -14,-69l0 0zm-931 -264c35,-56 104,-97 174,-97 83,0 146,56 229,63 28,0 56,7 83,7 -21,76 -28,153 -14,229 49,-97 118,-188 215,-243 28,-14 63,-14 90,-14 -21,76 -69,146 -83,222 -14,49 -14,104 7,160 21,0 41,-7 62,-7 18,-75 72,-145 147,-167 42,-14 83,7 118,28 35,-14 76,-49 111,-14 0,76 -42,146 -35,222 21,0 42,0 63,0 7,-90 49,-195 139,-229 42,-14 83,-7 125,7 14,-49 21,-104 28,-153 -7,-7 -14,-14 -21,-21l0 -7 0 0c49,-28 104,-56 160,-28 -7,132 -56,264 -76,396 -14,49 49,21 76,28 -14,69 -90,90 -153,97 -42,0 -63,-42 -69,-76 -28,42 -76,83 -132,76 -35,-7 -56,-35 -69,-63 -49,35 -97,69 -160,63 -35,-7 -49,-49 -56,-76 -35,35 -69,76 -125,76 -42,0 -76,-49 -76,-90 0,-6 -1,-12 0,-19 -19,66 -73,123 -145,123 -42,0 -69,-49 -76,-83 -14,-104 35,-202 76,-292 -76,76 -104,188 -167,271 -14,21 -42,56 -69,28 -7,-42 0,-90 7,-132 0,-56 0,-111 0,-167 -49,118 -49,264 -139,368 -83,97 -243,132 -347,56 -83,-56 -90,-188 -21,-257 56,-63 153,-90 236,-56 -7,28 -49,63 -21,90 35,35 90,7 111,-28 56,-76 76,-174 139,-250 -42,-14 -83,-14 -125,0 0,14 0,28 0,42 14,7 35,7 49,14 -28,69 -111,104 -181,97 -83,-14 -118,-125 -83,-195l0 0 0 0zm1355 250c14,-14 49,-14 49,14 7,35 -35,90 -69,56 -7,-28 0,-56 21,-69l0 0zm-97 737l21 21c-9,62 -24,122 -38,181 -20,1 -46,7 -66,7 -35,-69 49,-153 14,-229 -49,-35 -104,7 -153,28l0 0 0 -7c7,14 14,21 21,35 -14,63 -35,125 -35,195 0,49 49,69 90,69 43,-5 95,-23 119,-61 -5,20 -10,40 -15,61 42,-21 97,-14 139,-35 35,-56 28,-118 56,-174 7,-21 49,-28 49,0 -7,69 -28,139 -42,208 42,-14 90,-14 132,-35 42,-56 28,-132 63,-188 14,-7 28,-7 42,-14 0,56 -21,104 -28,153 0,42 42,69 76,69 49,0 97,-28 132,-56 21,28 42,56 83,56 63,0 139,-35 153,-97 -28,0 -49,7 -76,7 -14,-56 14,-111 21,-167 0,-21 14,-63 -21,-69 -49,-21 -97,14 -132,35 28,63 -14,132 -21,195 -21,-7 -76,21 -69,-14 0,-56 28,-111 28,-167 -7,-35 -42,-56 -76,-56 -42,0 -83,21 -118,42 -21,-21 -42,-49 -76,-42 -42,0 -76,21 -111,42 -14,-14 -21,-35 -35,-42 -49,-14 -97,21 -139,42l0 0 14 7zm-938 -7c76,14 153,-21 195,-90 -21,-14 -76,-14 -49,-49 28,-35 83,-14 125,-7 -56,76 -76,174 -132,250 -21,35 -83,63 -118,28 -28,-28 14,-56 28,-83 -118,-63 -292,35 -292,174 0,69 42,132 104,160 125,49 278,-7 341,-125 56,-97 63,-215 104,-320 7,97 0,188 0,285 0,35 42,21 56,0 76,-90 97,-208 181,-292 -35,69 -69,139 -76,222 -7,49 -7,97 28,139 21,28 63,28 97,14 63,-28 104,-97 97,-167 -21,0 -63,14 -69,-21 -28,-125 56,-236 90,-354 -35,0 -69,-7 -97,14 -97,56 -160,146 -208,243 -14,-83 7,-160 7,-236 -14,0 -35,0 -42,0 -90,7 -174,-63 -264,-63 -208,21 -252,248 -104,278zm820 -195c-42,7 -83,56 -63,97 42,63 160,21 146,-56 0,-42 -56,-56 -90,-42l0 0 7 0z"/>
 </g>
</svg>
