<?xml version="1.0" encoding="UTF-8"?>
<!DOCTYPE svg PUBLIC "-//W3C//DTD SVG 1.1//EN" "http://www.w3.org/Graphics/SVG/1.1/DTD/svg11.dtd">
<!-- Creator: CorelDRAW 2017 -->
<svg xmlns="http://www.w3.org/2000/svg" xml:space="preserve" width="89.9308mm" height="76.2mm" version="1.1" style="shape-rendering:geometricPrecision; text-rendering:geometricPrecision; image-rendering:optimizeQuality; fill-rule:evenodd; clip-rule:evenodd"
viewBox="0 0 1915 1622"
 xmlns:xlink="http://www.w3.org/1999/xlink">
 <defs>
  <style type="text/css">
   <![CDATA[
    .fil0 {fill:black}
   ]]>
  </style>
 </defs>
 <g id="Camada_x0020_1">
  <metadata id="CorelCorpID_0Corel-Layer"/>
  <g id="responsive-devices.svg">
   <g>
    <path class="fil0" d="M1725 0l-1148 0c-105,0 -189,85 -189,189l0 178 164 0 0 -144c0,-40 32,-72 72,-72l1054 0c40,0 72,32 72,72l0 678c0,40 -32,72 -72,72l-491 0 0 236c0,0 -1,314 -1,317 -1,33 -11,64 -27,91l341 0c40,0 72,-32 72,-72l0 -92c0,-40 -32,-72 -72,-72l-176 0 0 -128 400 0c105,0 189,-85 189,-189l0 -875c0,-105 -85,-189 -189,-189zm-93 1162c-33,0 -59,-27 -59,-59 0,-33 26,-59 59,-59 33,0 59,26 59,59 0,33 -27,59 -59,59z"/>
    <path class="fil0" d="M1016 758l-9 -16 -59 59 0 537 -334 0 0 115c10,-7 21,-12 33,-12 33,0 59,26 59,59 0,33 -26,59 -59,59 -13,0 -24,-5 -33,-12l0 17c0,20 -4,39 -11,57l384 0c57,0 104,-46 104,-104l0 -717 -2 0c-30,0 -58,-16 -72,-43z"/>
    <path class="fil0" d="M346 627l412 0 66 -66 -16 -9c-29,-16 -46,-48 -42,-81 0,-2 1,-4 2,-6l-461 0c-57,0 -104,46 -104,104l0 145 142 0 0 -86z"/>
    <path class="fil0" d="M453 800l-388 0c-36,0 -65,29 -65,65l0 691c0,36 29,65 65,65l388 0c36,0 65,-29 65,-65l0 -691c0,-36 -29,-65 -65,-65zm-194 784c-27,0 -50,-22 -50,-50 0,-27 22,-50 50,-50 27,0 50,22 50,50 0,28 -22,50 -50,50zm154 -202l-307 0 0 -454 307 0 0 454 0 0z"/>
    <path class="fil0" d="M1201 367c-3,-4 -8,-5 -13,-5 -2,0 -3,0 -5,1l-339 100c-7,2 -12,8 -13,15 -1,7 3,14 9,18l91 50 -241 241c-25,25 -25,66 0,91 13,13 29,19 46,19 16,0 33,-6 46,-19l241 -241 50 91c3,6 9,9 16,9 1,0 1,0 2,0 7,-1 13,-6 15,-13l100 -339c2,-6 0,-13 -5,-18z"/>
   </g>
   <g>
   </g>
   <g>
   </g>
   <g>
   </g>
   <g>
   </g>
   <g>
   </g>
   <g>
   </g>
   <g>
   </g>
   <g>
   </g>
   <g>
   </g>
   <g>
   </g>
   <g>
   </g>
   <g>
   </g>
   <g>
   </g>
   <g>
   </g>
   <g>
   </g>
  </g>
 </g>
</svg>
