<?xml version="1.0" encoding="UTF-8"?>
<!DOCTYPE svg PUBLIC "-//W3C//DTD SVG 1.1//EN" "http://www.w3.org/Graphics/SVG/1.1/DTD/svg11.dtd">
<!-- Creator: CorelDRAW 2017 -->
<svg xmlns="http://www.w3.org/2000/svg" xml:space="preserve" width="16.0056mm" height="16.0056mm" version="1.1" style="shape-rendering:geometricPrecision; text-rendering:geometricPrecision; image-rendering:optimizeQuality; fill-rule:evenodd; clip-rule:evenodd"
viewBox="0 0 277 277"
 xmlns:xlink="http://www.w3.org/1999/xlink">
 <defs>
  <style type="text/css">
   <![CDATA[
    .fil0 {fill:black}
   ]]>
  </style>
 </defs>
 <g id="Camada_x0020_1">
  <metadata id="CorelCorpID_0Corel-Layer"/>
  <path class="fil0" d="M138 0c76,0 138,62 138,138 0,76 -62,138 -138,138 -76,0 -138,-62 -138,-138 0,-76 62,-138 138,-138zm-94 120c-10,0 -18,8 -18,18 0,10 8,18 18,18 10,0 18,-8 18,-18 0,-10 -8,-18 -18,-18zm132 84c-9,5 -12,16 -7,25 5,9 16,12 25,7 9,-5 12,-16 7,-25 -5,-9 -16,-12 -25,-7l0 0 0 0zm-92 -66c0,-18 9,-34 23,-44l-14 -23c-16,11 -28,27 -33,47 6,5 10,12 10,20 0,8 -4,15 -10,20 5,19 17,36 33,47l14 -23c-14,-10 -23,-26 -23,-44l0 0 0 0 0 0zm54 -54c28,0 51,22 54,49l26 0c-1,-20 -10,-39 -24,-52 -7,3 -15,2 -22,-2 -7,-4 -11,-11 -13,-18 -7,-2 -14,-3 -21,-3 -13,0 -25,3 -36,8l13 23c7,-3 15,-5 23,-5l0 0 0 0zm0 108c-8,0 -16,-2 -23,-5l-13 23c11,5 23,8 36,8 7,0 15,-1 21,-3 1,-7 6,-14 13,-18 7,-4 15,-4 22,-2 14,-13 23,-32 24,-52l-26 0c-2,28 -26,49 -54,49l0 0zm38 -120c9,5 20,2 25,-7 5,-9 2,-20 -7,-25 -9,-5 -20,-2 -25,7 -5,9 -2,20 7,25l0 0z"/>
 </g>
</svg>
